<?xml version="1.0" encoding="utf-8"?>
<!-- Generator: Fusion 360, Shaper Origin Export Add-In, Version 1.6.10  -->
<svg xmlns="http://www.w3.org/2000/svg" xmlns:xlink="http://www.w3.org/1999/xlink" xmlns:shaper="http://www.shapertools.com/namespaces/shaper" shaper:fusionaddin="version:1.6.10" width="15cm" height="10cm" version="1.1" x="0cm" y="0cm" viewBox="0 0 15 10" enable-background="new 0 0 15 10" xml:space="preserve"><path d="M-6.6,5 A0.9,0.9 90 0,1 -7.5,4.1 L-7.5,-4.1 A0.9,0.9 180 0,1 -6.6,-5 L6.6,-5 A0.9,0.9 270 0,1 7.5,-4.1 L7.5,4.1 A0.9,0.9 0 0,1 6.6,5 L-6.6,5z" transform="matrix(1,0,0,-1,7.5,5)" fill="rgb(0,0,0)" shaper:cutDepth="0.003" stroke-linecap="round" stroke-linejoin="round" /><path d="M-1.749802,-0 a0.75,0.75 0 1,1 1.5,0 a0.75,0.75 0 1,1 -1.5,0z" transform="matrix(1,0,0,-1,7.5,5)" fill="rgb(255,255,255)" stroke="rgb(0,0,0)" stroke-width="0.0010cm" stroke-linecap="round" stroke-linejoin="round" shaper:cutDepth="0.003" /><path d="M0.3450002,0.6499999 a0.155,0.155 0 1,1 0.31,0 a0.155,0.155 0 1,1 -0.31,0z" transform="matrix(1,0,0,-1,7.5,5)" fill="rgb(255,255,255)" stroke="rgb(0,0,0)" stroke-width="0.0010cm" stroke-linecap="round" stroke-linejoin="round" shaper:cutDepth="0.003" /><path d="M0.3450001,-0.6499999 a0.1549998,0.1549998 0 1,1 0.3099997,0 a0.1549998,0.1549998 0 1,1 -0.3099997,0z" transform="matrix(1,0,0,-1,7.5,5)" fill="rgb(255,255,255)" stroke="rgb(0,0,0)" stroke-width="0.0010cm" stroke-linecap="round" stroke-linejoin="round" shaper:cutDepth="0.003" /><path d="M-2.9600009,2.0906089 a0.1600008,0.1600008 0 1,1 0.3200015,0 a0.1600008,0.1600008 0 1,1 -0.3200015,0z" transform="matrix(1,0,0,-1,7.5,5)" fill="rgb(255,255,255)" stroke="rgb(0,0,0)" stroke-width="0.0010cm" stroke-linecap="round" stroke-linejoin="round" shaper:cutDepth="0.003" /><path d="M-2.9599998,-2.1 a0.1599996,0.1599996 0 1,1 0.3199992,0 a0.1599996,0.1599996 0 1,1 -0.3199992,0z" transform="matrix(1,0,0,-1,7.5,5)" fill="rgb(255,255,255)" stroke="rgb(0,0,0)" stroke-width="0.0010cm" stroke-linecap="round" stroke-linejoin="round" shaper:cutDepth="0.003" /><path d="M5.25,-0 a0.75,0.75 0 1,1 1.5,0 a0.75,0.75 0 1,1 -1.5,0z" transform="matrix(1,0,0,-1,7.5,5)" fill="rgb(255,255,255)" stroke="rgb(0,0,0)" stroke-width="0.0010cm" stroke-linecap="round" stroke-linejoin="round" shaper:cutDepth="0.003" /><path d="M-0.4249344,3.2251632 a0.13,0.13 0 1,1 0.26,0 a0.13,0.13 0 1,1 -0.26,0z" transform="matrix(1,0,0,-1,7.5,5)" fill="rgb(255,255,255)" stroke="rgb(0,0,0)" stroke-width="0.0010cm" stroke-linecap="round" stroke-linejoin="round" shaper:cutDepth="0.003" /><path d="M5.1750656,3.2251632 a0.13,0.13 0 1,1 0.26,0 a0.13,0.13 0 1,1 -0.26,0z" transform="matrix(1,0,0,-1,7.5,5)" fill="rgb(255,255,255)" stroke="rgb(0,0,0)" stroke-width="0.0010cm" stroke-linecap="round" stroke-linejoin="round" shaper:cutDepth="0.003" /><path d="M5.1750656,-3.2798368 a0.13,0.13 0 1,1 0.26,0 a0.13,0.13 0 1,1 -0.26,0z" transform="matrix(1,0,0,-1,7.5,5)" fill="rgb(255,255,255)" stroke="rgb(0,0,0)" stroke-width="0.0010cm" stroke-linecap="round" stroke-linejoin="round" shaper:cutDepth="0.003" /><path d="M-0.46,-3.275 a0.13,0.13 0 1,1 0.26,0 a0.13,0.13 0 1,1 -0.26,0z" transform="matrix(1,0,0,-1,7.5,5)" fill="rgb(255,255,255)" stroke="rgb(0,0,0)" stroke-width="0.0010cm" stroke-linecap="round" stroke-linejoin="round" shaper:cutDepth="0.003" /><path d="M5.4049999,4.25 a0.145,0.145 0 1,1 0.29,0 a0.145,0.145 0 1,1 -0.29,0z" transform="matrix(1,0,0,-1,7.5,5)" fill="rgb(255,255,255)" stroke="rgb(0,0,0)" stroke-width="0.0010cm" stroke-linecap="round" stroke-linejoin="round" shaper:cutDepth="0.003" /><path d="M3.0049999,4.25 a0.145,0.145 0 1,1 0.29,0 a0.145,0.145 0 1,1 -0.29,0z" transform="matrix(1,0,0,-1,7.5,5)" fill="rgb(255,255,255)" stroke="rgb(0,0,0)" stroke-width="0.0010cm" stroke-linecap="round" stroke-linejoin="round" shaper:cutDepth="0.003" /><path d="M-3.5950001,4.25 a0.145,0.145 0 1,1 0.29,0 a0.145,0.145 0 1,1 -0.29,0z" transform="matrix(1,0,0,-1,7.5,5)" fill="rgb(255,255,255)" stroke="rgb(0,0,0)" stroke-width="0.0010cm" stroke-linecap="round" stroke-linejoin="round" shaper:cutDepth="0.003" /><path d="M-5.9950001,4.25 a0.145,0.145 0 1,1 0.29,0 a0.145,0.145 0 1,1 -0.29,0z" transform="matrix(1,0,0,-1,7.5,5)" fill="rgb(255,255,255)" stroke="rgb(0,0,0)" stroke-width="0.0010cm" stroke-linecap="round" stroke-linejoin="round" shaper:cutDepth="0.003" /><path d="M-5.9950001,-4.25 a0.145,0.145 0 1,1 0.29,0 a0.145,0.145 0 1,1 -0.29,0z" transform="matrix(1,0,0,-1,7.5,5)" fill="rgb(255,255,255)" stroke="rgb(0,0,0)" stroke-width="0.0010cm" stroke-linecap="round" stroke-linejoin="round" shaper:cutDepth="0.003" /><path d="M-3.5950001,-4.25 a0.145,0.145 0 1,1 0.29,0 a0.145,0.145 0 1,1 -0.29,0z" transform="matrix(1,0,0,-1,7.5,5)" fill="rgb(255,255,255)" stroke="rgb(0,0,0)" stroke-width="0.0010cm" stroke-linecap="round" stroke-linejoin="round" shaper:cutDepth="0.003" /><path d="M3.0049999,-4.25 a0.145,0.145 0 1,1 0.29,0 a0.145,0.145 0 1,1 -0.29,0z" transform="matrix(1,0,0,-1,7.5,5)" fill="rgb(255,255,255)" stroke="rgb(0,0,0)" stroke-width="0.0010cm" stroke-linecap="round" stroke-linejoin="round" shaper:cutDepth="0.003" /><path d="M5.405,-4.25 a0.145,0.145 0 1,1 0.29,0 a0.145,0.145 0 1,1 -0.29,0z" transform="matrix(1,0,0,-1,7.5,5)" fill="rgb(255,255,255)" stroke="rgb(0,0,0)" stroke-width="0.0010cm" stroke-linecap="round" stroke-linejoin="round" shaper:cutDepth="0.003" /></svg>